<?xml version="1.0" standalone="no"?>
<!DOCTYPE svg PUBLIC "-//W3C//DTD SVG 20010904//EN"
 "http://www.w3.org/TR/2001/REC-SVG-20010904/DTD/svg10.dtd">
<svg version="1.0" xmlns="http://www.w3.org/2000/svg"
 width="256.000000pt" height="256.000000pt" viewBox="0 0 256.000000 256.000000"
 preserveAspectRatio="xMidYMid meet">
<metadata>
Created by potrace 1.11, written by Peter Selinger 2001-2013
</metadata>
<g transform="translate(0.000000,256.000000) scale(0.100000,-0.100000)"
fill="#000000" stroke="none">
<path d="M1138 2555 c-2 -3 -22 -7 -44 -9 -21 -2 -69 -11 -105 -19 -514 -122
-899 -543 -977 -1067 -8 -55 -8 -310 0 -365 11 -73 40 -190 49 -199 5 -6 9
-19 9 -29 0 -24 79 -193 123 -262 167 -267 421 -462 716 -550 136 -40 204 -49
371 -49 160 0 217 6 330 37 487 136 836 516 929 1012 14 76 18 136 16 250 -1
83 -5 161 -9 175 -3 14 -11 50 -17 80 -37 179 -153 413 -272 548 -151 171
-341 304 -536 373 -48 17 -93 32 -101 34 -8 2 -33 8 -55 13 -22 6 -58 13 -80
17 -48 8 -341 16 -347 10z"/>
</g>
</svg>
